<svg xmlns="http://www.w3.org/2000/svg" style="display: none;">
  
    <symbol id="alltypes-01" viewBox="0 0 512 512">
      <path d="m445 260l0 0c0 2 0 4 1 5 4 6 10 8 17 8l0 0z m22-12c5 1 9 7 9 11l0 0c-3-3-7-2-13-4-4-2-11-6-13-13l0 0 0 0c7 6 9 3 17 6m25 23c0-9-8-16-14-21l-1 0c2 3 4 6 4 10 0 12-9 18-19 18-6 0-10-2-14-4l0 0c2 3 15 15 24 15 11 0 20-7 20-18m-3-41l-11-11 0 0-3 3c-4-3-6-5-12-5-8 0-16 5-16 13 0 6 6 10 12 11l0 0c0-9 5-14 13-14 6 0 9 3 13 6l0 0z m-80 11l0-10 20 0 0-5-12-12 0 4-21 0 0 23z m0 31l0-14 20 0 0-5-12-12 0 5-21 0 0 26z m21 17l0-5-12-13 0 5-27 0 12 13z m-73-27c12 0 22-6 22-21 0-5-7-16-13-19l-1 0c2 3 3 6 3 9 0 11-6 19-21 19l-4 0 0 26-6 0 0 1 13 12 7 0 0-27z m0-33c2 0 4 0 6 1l0-1c-1-9-8-11-15-11l-5 0 0 27c1 1 3 1 4 1 4 0 8-1 10-2l0-15z m-47 60l0-38 15-28-9-9 0 0-20 35 0 27-6 0 0 1 14 12z m-10-57l-5-8-17-10 0 0 16 28 1 0z m-70-2l7 0 0-12-16 0z m26 59l0-59 14 0 0-5-10-11 0 4-18 0 0 58-5 0 13 13z m-78-6l-12-12 0 5-29 0 13 13 28 0z m-36-11l14 0 0-45-14-13 0 0z m-15 11l-12-12 0 5-29 0 13 13 28 0z m-36-11l15 0 0-45-15-13 0 0z m-53-21l4-11-6-15 0 0-11 26z m-28 25l10 13 5 0 7-21 22 0-5-12-26 0-9 20z m47 0l15 13 7 0-27-64-16-13 0 0 27 64z"/>
    </symbol>
  
    <symbol id="alltypes-02" viewBox="0 0 512 512">
      <path d="m469 216c9 0 19 3 19 13 0 5-2 7-6 7-2 0-4 0-5-3-1-1-1-2-1-3-2-3-5-4-7-4-4 0-7 3-7 7 0 4 5 7 12 12 8 5 9 6 11 8 5 6 6 11 6 14 0 14-11 20-23 20-13 0-21-7-21-16 0-6 3-9 7-9 1 0 3 1 4 2 1 1 1 2 2 5 0 2 1 4 2 6 2 1 4 2 6 2 5 0 8-4 8-8 0-6-4-8-11-13-10-6-16-10-16-21 0-13 9-19 20-19m0-3c-15 0-23 10-23 22 0 12 6 17 17 23 7 4 7 5 8 6 2 2 3 3 3 5 0 3-3 5-6 5-1 0-4 0-5-4 0-1 0-2-1-3 0-5-3-8-8-8-6 0-10 5-10 12 0 10 9 18 24 18 7 0 14-1 19-6 3-4 6-9 6-16 0-10-5-16-11-20-2-1-4-3-6-4-3-2-7-4-9-6-1-2-2-3-2-4 0-2 1-4 4-4 3 0 4 2 4 3 0 0 1 1 1 2 1 3 4 5 8 5 5 0 9-3 9-10 0-3-2-7-5-10-4-4-10-6-17-6m-61 60c0 1 0 2 2 2l15 0c2 0 7 0 7 5 0 2-2 5-4 5-1 1-2 1-3 1l-23 0c-2 0-4 0-6-2-2-2-2-5-2-8l0-50c0-2 0-5 2-7 2-2 4-2 6-2l22 0c2 0 4 0 6 2 1 1 1 2 1 4 0 1-1 4-3 5-1 0-2 0-3 0l-15 0c-1 0-2 0-2 2l0 15 15 0c1 0 6 0 6 5 0 2-1 4-3 5-1 0-2 0-3 0l-15 0z m17-42c2 0 5 0 7-2 1-2 2-4 2-6 0-3-1-7-6-8-1 0-3 0-5-1l-21 0c-3 1-5 1-8 3-3 3-3 6-3 9l0 52c0 3 1 6 3 8 2 2 5 2 8 3l22 0c3-1 6-1 8-3 2-2 2-4 2-6 0-2-1-6-5-7-1-1-3-1-4-1l-15 0 0-14 13 0c2 0 5 0 7-2 1-2 2-4 2-6 0-2-1-4-2-5-3-3-5-3-8-3l-12 0 0-11z m-76-1c5 1 8 1 8 8 0 9-3 9-8 9z m-3 20c8 0 11 0 13-4 1-3 1-5 1-7 0-11-5-11-11-11-3 0-3 1-3 3z m0 28c0 2 0 4-1 6-2 1-4 2-6 2-2 0-5-2-6-5 0-1 0-2 0-3l0-53c0-2 0-4 2-6 1-2 4-2 5-2l12 0c10 0 16 1 19 7 1 2 2 8 2 16 0 20-7 20-21 20l-6 0z m-5-64c-3 1-6 1-8 3-3 3-3 5-3 8l0 53c0 3 0 6 3 8 2 2 4 3 7 3 3 0 8-2 9-7 0-1 0-3 0-4l0-15c18 0 27 0 27-23 0-18-5-22-8-23-3-2-9-2-16-3l-11 0z m-68 19c-2-6-2-8-2-10 0-4 3-6 6-6 5 0 6 5 7 9 2 5 4 11 7 26 0 1 0 1 1 1 1 0 1 0 1-1 2-8 4-19 7-27 1-4 2-8 7-8 3 0 6 1 6 6 0 2-1 5-2 9l-12 29c0 2 0 2 0 4l0 12c0 3-1 9-7 9-2 0-6 0-7-5 0-1 0-3 0-4l0-13c0-1 0-2-1-3z m9 30l0 14c0 3 0 6 3 9 2 2 4 3 7 3 2 0 8-1 9-7 0-2 0-4 0-5l0-14 12-29c1-4 3-8 3-11 0-6-4-9-9-9-7 0-9 6-9 9-2 5-6 20-6 23 0 1 0 1 0 2-1-6-2-13-5-24-1-4-3-10-10-10-6 0-9 5-9 10 0 2 1 5 2 8z m-62-35c-2 0-7 0-7-5 0-6 5-6 7-6l26 0c2 0 4 0 5 2 1 1 2 2 2 4 0 1-1 2-2 3-1 2-3 2-4 2l-7 0 0 49c0 2 0 5-3 7-1 1-3 2-5 2-2 0-5-1-6-5 0-1 0-3 0-4l0-49z m-1-14c-2 0-4 0-7 3-1 1-2 3-2 6 0 3 2 6 6 7 1 1 2 1 3 1l4 0 0 46c0 3 0 6 3 9 2 2 4 3 7 3 3 0 7-2 9-7 0-2 0-3 0-5l0-46c6 0 7 0 8-1 4-1 6-5 6-7 0-2-1-5-3-6-2-2-5-3-8-3z m-71 58c0 2 1 3 3 3l13 0c2 0 4 0 5 1 1 1 2 3 2 4 0 1-1 3-2 4-2 2-4 2-6 2l-19 0c-3 0-8 0-9-6 0-1 0-3 0-4l0-50c0-2 0-5 2-8 1-1 3-1 4-1 3 0 6 1 7 5 0 1 0 2 0 3z m3-46c0-3 0-7-3-9-2-2-4-3-7-3-4 0-8 2-9 8 0 1 0 2 0 4l0 50c0 3 0 7 3 10 2 2 6 3 9 3l19 0c3 0 6-1 8-3 2-2 2-4 2-6 0-3-1-6-5-7-1-1-3-1-4-1l-13 0z m-58 46c0 2 0 3 3 3l12 0c2 0 4 0 5 1 1 1 2 3 2 4 0 1-1 3-2 4-1 2-4 2-6 2l-19 0c-3 0-7 0-9-6 0-1 0-3 0-4l0-50c0-2 0-5 2-8 1-1 3-1 5-1 3 0 5 1 6 5 1 1 1 2 1 3z m3-46c-1-3-1-7-3-9-2-2-5-3-7-3-4 0-8 2-10 8 0 1 0 2 0 4l0 50c0 3 0 7 3 10 3 2 7 3 10 3l18 0c3 0 6-1 9-3 1-2 2-4 2-6 0-3-2-6-6-7-1-1-2-1-4-1l-12 0z m-57 30l-6 0 3-25z m-1-27c-1-1-1-1-2-1-2 0-2 0-2 2l-4 29 12 0z m-11 50c-1 3-2 7-7 7-3 0-7-2-7-7 0-2 0-4 1-7l10-46c2-9 3-9 13-9 7 0 9 2 11 8l10 48c1 4 1 5 1 6 0 5-4 7-7 7-6 0-7-5-7-8l-2-9-15 0z m15 1c0 2 1 4 3 6 2 2 4 3 7 3 4 0 10-3 10-10 0-1-1-3-2-7l-9-48c-1-3-2-8-10-9-2-1-4-1-7-1-9 0-11 4-13 10l-10 47c-1 4-1 6-1 8 0 6 4 10 10 10 2 0 5-1 6-2 3-2 3-5 3-8l2-8 10 0z"/>
    </symbol>
  
    <symbol id="alltypes-03" viewBox="0 0 512 512">
      <path d="m471 289c6 0 12-3 16-7 5-5 7-10 7-17 0-4-1-8-3-11-2-3-5-6-9-9l-3-2c-2-2-4-4-4-5 0-2 1-3 2-3 1-1 2-2 3-2 2 0 4 1 6 2 2 2 4 4 6 6l0-21c-5-3-10-4-14-4-5 0-10 1-14 4-1 1-2 3-3 4-1 1-2 3-3 5-2 3-2 7-2 10 0 2 0 4 0 5 1 2 1 4 2 5 1 2 3 4 4 5 2 2 3 3 6 5l3 2c2 2 3 4 3 6 0 1 0 2-1 3-1 1-3 1-4 1-5 0-9-2-13-8l0 23c5 2 10 3 15 3m-30 0l0-18-17 0 0-11 15 0 0-17-15 0 0-10 17 0 0-17-37 0 0 73z m-82-56l1 0c3 0 4 1 6 2 1 2 2 4 2 6 0 3-1 5-2 6-2 2-4 3-6 3l-1-1z m0 32l3 0c7 0 13-2 17-5 6-4 9-11 9-19 0-8-3-15-8-19-5-4-12-6-22-6l-19 0 0 73 20 0z m-50-7l17-42-21 0-3 11c-1 1-1 3-2 4 0 2-1 5-2 7 0-1-1-3-1-5-1-2-1-4-2-6l-4-11-20 0 18 42 0 31 20 0z m-63-25l11 0 0-17-42 0 0 17 11 0 0 56 20 0z m-78 38l-15 0 0-55-19 0 0 73 34 0z m-51 0l-15 0 0-55-19 0 0 73 34 0z m-82-7l2-11 1-9c0 0 0-1 0-2 0 0 0-2 1-4 0-1 0-1 0-2 0-1 0-2 0-2l1 6c0 2 0 3 0 4 0 1 0 2 0 2 1 5 1 8 1 8 1 1 1 2 1 2l1 8z m17-48l-24 0-18 73 20 0 2-10 13 0 2 10 20 0z"/>
    </symbol>
  
    <symbol id="alltypes-04" viewBox="0 0 512 512">
      <path d="m487 286c4-4 6-8 6-13 0-5-3-8-7-10-3-2-8-3-15-4-6 0-10-1-13-3-2-2-3-4-3-8 0-4 1-7 4-9 3-3 7-4 12-4 5 0 9 2 12 5 3 2 4 6 4 11 0-1 0 0 0 1l0 2 0 0c0 2 0 2 1 2 1 0 2 0 2-2l0-1c0 0 0-1 0-2 0 0-1-2-1-5l1-4c0-1 0-2 0-2 0-1 0-2 0-2 0-1 0-2 0-3 0-1 0-1-1-1-1 0-2 1-2 3l0 5c-3-6-9-9-16-9-6 0-10 2-14 5-4 3-5 6-5 11 0 2 0 4 2 6 1 2 2 4 5 5 2 1 7 2 14 3 6 0 10 2 13 3 2 2 4 5 4 8 0 5-2 8-5 10-4 3-8 4-13 4-6 0-11-1-14-4-4-3-5-7-5-12 0-1 0-2 0-3 0-1 0-1 0-2 0-1 0-1 0-1 0-2-1-3-2-3-1 0-1 1-1 2 0 0 0 1 0 3 0 2 0 5 0 8 0 4 0 6 0 8 0 2 0 3 0 4 0 2 0 2 2 2 0 0 1 0 1-2 0 0 0-1 0-4 0-1 0-2 0-3 4 6 10 9 19 9 6 0 11-1 15-4m-97-34c2-6 4-10 8-12 4-3 8-5 13-5 7 0 12 3 16 8 3 4 5 9 5 13 0 1-1 2-2 2l-38 0c-2 0-3 0-3-2 0-1 1-2 1-4m38-12c-4-5-10-7-17-7-7 0-13 3-18 8-5 6-7 13-7 21 0 9 2 16 7 21 4 5 10 7 18 7 5 0 10-1 13-3 4-3 7-6 9-11 1-2 1-4 1-5 0-1 0-1-1-1-1 0-2 0-2 2 0 1 0 2 0 2-1 3-2 5-4 7-4 5-9 7-16 7-7 0-12-2-16-7-4-4-6-10-6-18 0-1 0-2 0-2 0 0 1 0 2 0l40 0c1 0 2-1 3-1 1 0 1-1 1-3 0-6-2-12-7-17m-95 42c-2-3-4-6-4-10 0-2 0-5 0-11 0-5 0-9 1-12 0-2 2-5 4-7 4-5 8-7 15-7 6 0 11 3 15 7 3 5 5 11 5 20 0 8-2 14-6 19-4 5-9 7-15 7-6 0-11-2-15-6m-4-44l0-2c0-1-1-2-3-2 0 0-1 0-2 0-1 0-2 0-3 0l-4 0-3 0 0 0c-2 0-2 1-2 2 0 1 1 1 2 1l3 0c2 0 4-1 4-1 1 0 2 1 3 1 1 1 2 3 2 7l0 45c0 9-1 14-1 16-1 2-3 3-5 3-1 0-2 0-3 0-1 0-2 0-2 0 0-1-1-1-1-1-1 0-2 1-2 2 0 1 0 1 2 1l0 0 4 0 18 0 4 0 0 0c2 0 2 0 2-1 0-1-1-2-2-2 0 0-1 0-1 1 0 0-1 0-2 0-1 0-2 0-2 0-3 0-5-1-6-3 0-2 0-7 0-16l0-9c3 7 10 10 18 10 8 0 14-2 18-8 5-5 7-12 7-21 0-9-2-16-6-21-5-4-10-7-17-7-10 0-16 4-20 13l0-8z m-35 0c1-1 2-1 3-1l3 0c2 0 3-1 3-2 0 0-1-1-2-1-1 0-2 0-3 0-3 1-5 1-9 1l-4 0c-2 0-3 0-4-1-2 0-3 0-3 0-1 0-2 1-2 2 0 1 1 1 2 1 1 0 2 0 3 0 2 0 3 0 4 0 3 0 4 1 4 2 0 1 0 1 0 2l-18 44c0 1-1 1-1 1 0 0-1 0-1-1l-16-41-1-3c0-1 0-2 0-2 0-1 1-2 4-2l7 0c1 0 2-1 2-1 0-1-1-2-3-2-1 0-2 0-4 0-3 1-6 1-7 1-4 0-6 0-8-1-2 0-3 0-3 0-1 0-2 1-2 2 0 0 1 1 2 1l3 0c2 0 3 1 5 2 0 1 1 3 2 6l17 43c1 1 1 2 1 3 0 1-1 3-2 5-4 8-9 12-16 12-3 0-6-1-8-2-2-2-3-3-3-5 0-1 0-1 0-1 1 0 1 0 1 0 0 0 1 0 1 0 3 0 4-1 4-3 0-1-1-2-1-3-1 0-2-1-3-1-1 0-3 1-4 2-1 1-1 2-1 4 0 3 1 6 4 8 2 2 6 3 10 3 6 0 11-2 14-7 3-3 5-7 7-12l19-45 2-5c1-2 2-3 2-3m-83-1c1 0 2 0 4 0 2 0 3 0 4 0l3 0 0 0c2 0 3 0 3-1 0-1-1-2-2-2-1 0-2 0-4 0-2 0-3 0-4 0l-4 0c-2 0-3 0-3-2 0-2 0-3 0-4l1-6 0 0c0-1-1-2-2-2 0 0-1 1-1 2 0 0 0 2 0 5l0 1c0 2 0 4-1 4 0 2-1 2-4 2 0 0-1 0-2 0-2 0-3 0-3 0-1 0-2 1-2 1 0 2 1 2 2 2l3 0c1 0 2 0 3 0 1 0 2 0 3 0 0 1 0 2 0 5l0 29c0 13 5 19 14 19 6 0 10-2 12-8 1-3 1-7 1-12l0-3c0-2-1-3-2-3-1 0-1 1-1 3l0 4c0 6-1 11-2 13-2 3-5 4-8 4-5 0-8-2-10-7-1-3-1-8-1-16l0-23c0-2 0-3 0-4 0-1 1-1 3-1m-88-24l0 0c-2 0-2 1-2 2 0 0 0 1 2 1 0 0 1 0 3 0 2 0 3 0 4 0 2 0 3 0 4 2 0 1 1 5 1 12l0 38c0 9-1 14-1 16-1 2-3 3-6 3l-5 0c-1 0-2 0-2 1 0 1 0 1 2 1l0 0 4 0 5 0 8 0 5 0 4 0 0 0c1 0 2 0 2-1 0-1-1-1-2-1l-5 0c-3 0-5-1-6-3 0-2-1-7-1-16l0-51c0-2 0-3 0-3 0 0-1-1-2-1l-12 0z m-41 0l0 0c-1 0-2 1-2 2 0 0 1 1 2 1 0 0 2 0 4 0 1 0 2 0 3 0 2 0 4 0 4 2 1 1 1 5 1 12l0 38c0 9-1 14-1 16-1 2-2 3-5 3l-6 0c-1 0-2 0-2 1 0 1 1 1 2 1l0 0 4 0 5 0 9 0 4 0 4 0 0 0c2 0 2 0 2-1 0-1 0-1-2-1l-5 0c-3 0-5-1-5-3-1-2-1-7-1-16l0-51c0-2 0-3-1-3 0 0-1-1-2-1l-12 0z m-61 71c-3-2-4-5-4-9 0-3 1-6 2-8 2-2 4-3 6-4 2-1 6-1 11-2 8 0 13-2 16-5 0-1 1-1 1-1 0 0 0 0 0 1l0 11c0 6-2 11-6 15-4 4-9 6-15 6-4 0-8-1-11-4m32-3c1 6 4 9 9 9 6 0 9-4 9-12l0-5c0-1 0-2-1-2-1 0-2 1-2 3l0 6c0 5-2 8-6 8-4 0-6-3-6-9l0-28c0-6-2-11-5-14-4-3-8-4-14-4-6 0-10 1-14 4-4 3-6 6-6 10 0 2 1 3 2 5 1 1 2 2 4 2 2 0 3-1 4-2 1-1 1-2 1-3 0-2-1-4-3-4-1 0-2 1-3 2 0 1 0 1 0 1-1 0-1 0-1 0-1 0-1 0-1-1 0-4 2-6 5-9 3-2 7-3 12-3 5 0 9 1 12 4 3 2 4 5 4 9 0 3-1 6-4 8-2 1-7 2-13 3-4 0-7 0-9 1-4 1-8 3-10 5-2 3-3 6-3 10 0 5 1 8 5 11 3 3 7 4 13 4 6 0 12-2 17-6 1-2 3-4 4-6l0 0 0 1z"/>
    </symbol>
  
    <symbol id="alltypes-05" viewBox="0 0 512 512">
      <path d="m452 289l20 0c12 0 19-6 19-17 0-15-21-16-21-21 0-1 1-2 3-2l14 0 0-15-17 0c-9 0-17 6-17 16 0 18 19 16 19 21 0 1-1 2-3 2l-17 0z m-13-39c-6-10-14-17-26-17-15 0-28 13-28 29 0 15 13 28 28 28 13 0 24-9 30-21l-13-7c-3 6-10 12-16 12-7 0-12-7-12-13 0-7 4-14 11-14 2 0 4 0 7 2l-15 9 7 11z m-106 62l0-48c0-9 4-15 13-15 7 0 12 5 12 13 0 7-5 12-12 12-4 0-6-1-8-2l0 17c2 0 5 1 9 1 14 0 29-10 29-28 0-17-12-29-30-29-16 0-30 9-30 26l0 53z m-47 0l0-23c9-3 14-9 14-20l0-35-17 0 0 31c0 5-1 8-6 8-5 0-6-4-6-7l0-32-17 0 0 35c0 10 4 17 14 20l0 23z m-63-78l0-13-17 0 0 48c0 10 7 20 20 20l10 0 0-17c-1 0-2 0-4 0-6 0-9-1-9-7l0-15 13 0 0-16z m-73-23l-18 0 0 78 18 0z m-41 0l-17 0 0 78 17 0z m-36 78l0-30c0-17-14-26-31-26-17 0-29 12-29 29 0 18 14 28 26 28 5 0 8-1 12-3l0-15c-2 1-5 2-9 2-6 0-12-5-12-13 0-7 6-12 13-12 8 0 12 5 12 15l0 25z"/>
    </symbol>
  
    <symbol id="alltypes-06" viewBox="0 0 512 512">
      <path d="m465 236c-11 0-19 6-19 16 0 17 20 18 20 24 0 2-2 4-4 4-6 0-10-11-15-11-3 0-3 2-3 5 0 4 2 10 5 13 1 1 2 2 4 2 1 0 2 0 2 0 1-1 2-1 2-1 1 0 3 1 6 1 2 0 5 1 7 1 11 0 20-7 20-17 0-16-22-17-22-24 0-1 2-3 3-3 5 0 8 8 14 8 3 0 5-2 5-5 0-4-4-13-9-13-1 0-2 0-3 0-1 1-2 1-3 1-1 0-2 0-4-1-2 0-4 0-6 0m-53 19c-2 0-6 0-6-3 0-4 3-7 6-7 4 0 7 3 7 7 0 3-4 3-7 3m20 10c3 0 6-1 6-8 0-8-7-21-25-21-15 0-29 11-29 27 0 13 10 27 28 27 10 0 24-6 24-14 0-2-2-5-4-5-2 0-6 4-14 4-5 0-11-4-11-9 0-2 1-1 3-1l22 0z m-115 9c0 11 0 14-1 16-2 4-6 2-6 7 0 5 11 10 25 10 4 0 13 0 13-6 0-5-6-3-6-11 0-1 0-3 1-3 1 0 6 3 11 3 15 0 25-15 25-29 0-12-8-25-21-25-9 0-14 5-16 5-1 0-1-1-1-2 0-2 0-3-3-3-7 0-29 5-29 12 0 6 6 5 7 6 1 1 1 3 1 14z m36-10c0 5-1 12-7 12-4 0-5-1-5-5 0-19 1-20 5-20 6 0 7 8 7 13m-61-1c1-4 3-9 5-12 4-6 10-4 10-10 0-5-8-5-11-5-4 0-13 0-13 6 0 3 3 3 3 8 0 2-2 9-5 9-2 0-7-7-7-11 0-2 3-3 3-6 0-6-10-6-14-6-21 0-23 4-23 7 0 5 6 4 8 8l14 30c1 3 3 7 3 10 0 2-1 5-4 5-4 0-1-11-11-11-5 0-9 4-9 9 0 9 9 13 16 13 17 0 24-14 29-27z m-72-12c0-4 0-4 3-4l7 0c5 0 5-1 5-7 0-4 0-4-4-4l-7 0c-5 0-4 0-4-9 0-5-1-4-5-4-3 0-3-1-5 1l-24 15c-1 1-1 2-1 3 0 5 0 5 5 5 5 0 5-1 5 3l0 21c0 16 13 19 18 19 11 0 23-6 23-13 0-2-2-5-4-5-2 0-4 3-7 3-3 0-5-2-5-9z m-74-1c0-15 1-26 1-29 0-3-1-5-4-5-2 0-29 2-29 11 0 6 6 3 8 11 1 5 1 12 1 16 0 5 0 18-2 23-1 3-5 2-5 6 0 7 14 6 19 6 4 0 17 1 17-6 0-4-5-3-6-6 0-2 0-5 0-7z m-41 0c0-15 1-26 1-29 0-3-1-5-4-5-2 0-29 2-29 11 0 6 6 3 8 11 1 5 1 12 1 16 0 5 0 18-2 23-1 3-5 2-5 6 0 7 14 6 19 6 4 0 17 1 17-6 0-4-5-3-6-6 0-2 0-5 0-7z m-42 3c0-15-16-17-22-17-9 0-27 5-27 14 0 3 3 6 6 6 9 0 10-11 16-11 5 0 5 7 5 10 0 4-2 4-5 4-18 0-25 9-25 16 0 10 9 15 17 15 5 0 8-2 10-3 2-1 4-3 5-3 3 0 3 6 11 6 8 0 16-7 16-13 0-5-7 5-7-13l0-11z m-25 13c3 0 3 3 3 5 0 3 0 7-4 7-3 0-5-3-5-5 0-4 3-7 6-7"/>
    </symbol>
  
    <symbol id="alltypes-07" viewBox="0 0 512 512">
      <path d="m489 279c-1 2-2 4-4 6-2 1-5 2-7 3-3 0-6 1-9 1-3 0-6-1-10-1-3-1-5-2-8-3l0-16 1 0c0 2 1 4 2 6 1 2 2 4 4 6 1 2 3 3 4 5 2 1 5 1 7 1 4 0 7-1 9-3 2-2 4-5 4-10 0-2-1-4-3-6-1-2-3-3-6-3-2-1-4-1-6-2-2 0-4-1-5-1-3-1-6-3-8-5-2-3-2-6-2-10 0-2 0-4 1-6 1-2 2-4 4-5 2-2 4-3 6-4 2 0 5-1 8-1 3 0 6 1 8 1 3 1 5 2 7 2l2 15-1 0c-1-2-2-4-3-6-1-2-3-4-4-5-1-2-3-3-5-4-1-1-3-1-5-1-2 0-3 0-4 1-2 0-3 1-4 2-1 1-2 2-2 3-1 2-1 3-1 5 0 3 1 5 2 6 2 2 4 2 7 3 1 0 3 1 5 1 2 1 4 1 6 2 3 0 6 2 9 5 2 3 3 6 3 10 0 3 0 6-2 8m-70-43c-2-2-4-3-8-3-2 0-4 1-6 2-1 2-3 3-4 5-2 2-3 3-3 5-1 2-1 3-2 4l5 0c2 0 3 0 4 0 2 0 3 0 5 0 1 0 3 0 5 0 1 0 2 0 3 0 1 0 2 0 3-1 0 0 1-1 1-2 0 0 0-1 0-2 0-3-1-5-3-8m14 40c-1 2-3 4-5 6-1 2-4 4-6 5-3 1-6 2-9 2-4 0-8-1-11-3-3-1-6-3-9-6-2-3-4-6-5-10-1-3-2-7-2-11 0-4 1-7 2-10 1-3 3-6 5-9 2-2 5-5 8-6 3-2 6-3 10-3 3 0 6 1 9 2 3 0 5 2 7 3 2 2 4 4 5 6 1 3 2 6 2 9l-38 0c0 0 0 1 0 2 0 1 0 2 0 3 0 3 0 6 1 9 1 3 3 6 5 8 1 2 4 4 6 6 3 1 6 2 10 2 4 0 7-1 10-3 3-2 5-5 6-8l1 0c0 2-1 4-2 6m-76-24c0-2-1-5-3-7-1-2-3-3-5-4-3-1-5-2-8-2-2 0-4 0-6 1-1 1-3 2-4 3-1 1-2 2-2 3-1 1-1 2-1 2 0 2 0 3 0 5 0 2 0 3 0 5l0 7c0 2 0 4 0 6 0 1 0 3 1 5 0 2 1 3 2 5 1 1 2 2 4 3 1 1 3 2 6 2 2 0 4-1 6-2 3-2 4-3 6-6 2-2 3-4 4-7 1-3 2-7 2-10 0-3-1-6-2-9m10 17c-2 4-4 7-7 10-3 3-6 5-10 7-4 1-9 2-14 2-1 0-3 0-4 0-1 0-3-1-4-1 0 1 0 3 0 5 0 2 0 4 0 7 0 2 0 4 0 7l0 5c0 1 1 1 1 2 1 0 2 0 3 1 1 0 2 0 3 0 1 0 2 0 3 0l0 2-30 0 0-2c1 0 2 0 3 0 1 0 2-1 3-1 1 0 2-1 3-1 1-1 1-1 1-2l0-65c0-1 0-1 0-2 0 0-1 0-1-1-1 0-2-1-4-1-1-1-3-2-4-2l0-1 18-7 1 0 0 14 0 0c1-2 2-3 3-5 2-1 3-3 5-4 2-1 3-2 5-3 2-1 4-2 7-2 3 0 6 1 9 3 3 1 5 3 7 6 2 2 3 5 4 8 1 3 1 6 1 9 0 5-1 9-2 12m-68-35c-1 0-2 0-3 1-1 0-1 0-2 1-1 1-1 2-2 3 0 1-1 3-1 6-1 3-2 6-3 10-2 4-3 8-4 12-2 5-3 9-5 14-1 5-3 9-4 14-2 5-3 9-4 13-1 3-3 5-4 7-2 1-4 2-6 2-1 0-3-1-4-2-1-1-2-2-2-4 0-1 0-2 1-4 1-1 3-1 4-1 2 0 3 0 4 1 1 1 2 2 3 3l1 0c1-2 1-4 2-6 1-2 1-4 2-6 0-1 1-3 1-4 0-1 0-2 1-2-1-1-1-2-2-4 0-2-1-4-2-7-2-3-3-7-4-10-2-4-3-8-5-12-1-4-2-8-4-12-1-4-3-7-4-10 0-1-1-2-2-2-1-1-3-1-6-1l0-1 26 0 0 1c-2 0-3 0-4 1-2 0-2 1-2 3 0 0 0 1 1 3 0 1 1 3 1 5 1 3 2 5 3 8 1 2 2 5 3 8 1 3 2 5 3 8 1 2 2 5 2 7 1-1 1-2 2-4 0-2 1-5 2-8 1-2 2-5 3-8 1-4 1-6 2-9 1-3 2-5 2-7 1-2 1-3 1-4 0 0 0-1-1-1 0-1-1-1-1-1-1-1-2-1-2-1-1 0-2 0-3 0l0-1 19 0 0 1c-1 0-2 0-3 0m-66 6l-18 0 0 31c0 4 1 7 3 9 2 1 4 2 7 2 2 0 4 0 5-1 2-1 3-2 4-3l1 0c-1 1-1 2-2 4-1 1-2 2-3 3-2 1-3 2-5 3-2 0-4 1-7 1-1 0-3-1-4-1-2-1-3-1-5-2-1-1-2-2-2-4-1-1-1-2-1-3 0-8 0-15 0-21 0-7 0-13 0-18l-9 0 0-2 17-16 1 0 0 11 22 0z m-115 48l0-1c3 0 6 0 7-1 1-1 2-1 2-3l0-68c0 0 0-1 0-1-1 0-1-1-1-1-1 0-2-1-4-2-1-1-2-1-3-2l0 0 17-6 1 0 0 81c0 1 0 1 0 2 0 0 1 0 2 1 0 0 1 0 2 0 1 0 3 0 4 0l0 1-27 0z m-42 0l0-1c3 0 6 0 7-1 1-1 2-1 2-3l0-68c0 0 0-1-1-1 0 0 0-1-1-1 0 0-1-1-3-2-1-1-2-1-3-2l0 0 17-6 0 0 0 81c0 1 1 1 1 2 0 0 1 0 2 1 0 0 1 0 2 0 1 0 3 0 4 0l0 1-27 0z m-34-32c-1 1-3 2-5 4-2 1-4 2-6 3-2 2-4 3-5 5-2 1-2 3-2 5 0 2 0 4 2 6 1 1 3 2 5 2 2 0 4 0 6 0 1-1 3-2 4-3 1-1 1-2 1-4z m21 25c0 2-1 3-2 4-1 1-2 2-4 3-1 0-3 1-4 1-3 0-5-1-7-3-2-1-4-4-4-8l0 0c0 1-1 2-2 3-1 1-3 3-4 4-2 1-3 2-5 2-2 1-4 1-6 1-1 0-2 0-4 0-1 0-2-1-3-2-1-1-2-2-3-3 0-2-1-4-1-6 0-2 1-4 3-6 2-2 4-4 6-6 3-1 5-3 7-4 2-1 4-2 6-3 1-1 2-1 4-2 1-1 2-1 2-2l0-12c0 0 0 0 0-1 0 0-1-1-1-2-1 0-2-1-3-1-1-1-3-1-5-1-1 0-2 0-3 0-2 1-3 1-4 2-1 1-1 1-2 2-1 1-1 1-1 2l0 5c0 1 0 2-1 3-2 1-3 1-4 1-1 0-3 0-3-1-1-1-2-2-2-3 0-1 0-2 1-3 0 0 1-1 2-2 0 0 1-1 2-1 1-1 2-1 2-2 2-1 4-2 6-3 3-1 5-2 6-3 2-1 4-1 6-2 1 0 3-1 4-1 2 0 4 1 6 2 1 1 3 2 3 4 1 0 1 1 1 3 0 1 0 3 0 4 0 3 0 5 0 8 0 2 0 4 0 6 0 2 0 4 0 7 0 2 0 4 0 7 0 4 1 6 2 7 1 1 2 2 4 2 2 0 3-1 4-1 1-1 1-2 2-3l0 0c0 1 0 3-1 4"/>
    </symbol>
  
    <symbol id="alltypes-08" viewBox="0 0 512 512">
      <path d="m467 241c3 0 6 1 9 2l0 10 9 0 0-15c-5-3-12-4-18-4-4 0-7 0-10 1l4 7c2-1 4-1 6-1m-22 45c6 3 13 4 21 4 3 0 7-1 10-1l-4-7c-2 0-4 0-6 0-4 0-8 0-13-1l0-10-8 0z m43-13c0-22-34-10-34-24 0-1 1-3 1-4l-4-7c-4 3-6 7-6 12 0 22 34 10 34 24 0 1-1 3-2 4l5 8c4-3 6-7 6-13m-94-9l32 0 0-5c0-15-8-24-20-25l0 8c6 1 9 5 10 14l-22 0z m-17-2c0 21 13 28 28 28 7 0 14-2 20-5l0-9c-7 4-13 6-20 6-10 0-18-6-18-20 0-11 5-18 12-20l0-8c-13 2-22 13-22 28m-40 28c14 0 25-11 25-29 0-17-10-27-24-27-4 0-8 0-11 2l0 9c3-2 5-3 9-3 9 0 16 7 16 19 0 13-7 21-16 21-4 0-6-1-9-3l0 9c3 1 6 2 10 2m-35-47l8 0 0 61-8 0 0 9 31 0 0-9-13 0 0-69-18 0z m-42 39c-8 0-13-4-13-16l0-31-17 0 0 8 8 0 0 24c0 17 9 23 19 23 4 0 7-1 10-2l0-9c-2 2-4 3-7 3m6-39l8 0 0 44c0 15-7 18-16 18-7 0-13 0-18-3l0 8c4 4 10 4 17 4 15 0 27-6 27-27l0-52-18 0z m-50 0l0-8-14 0 0-16-9 0 0 16-11 0 0 8z m-23 7l0 23c0 10 5 16 15 16l8 0 0-9-6 0c-6 0-8-2-8-8l0-22-9 0z m-78 39l26 0 0-9-26 0z m0-73l8 0 0 58 10 0 0-66-18 0z m-40 73l27 0 0-9-27 0z m0-73l9 0 0 58 9 0 0-66-18 0z m-65 59c0 9 6 15 18 15 3 0 7-1 10-2l0-8c-3 1-6 2-10 2-5 0-9-3-9-7 0-5 3-8 10-9l9-2 0-7-11 1c-12 3-17 8-17 17m3-22l9 0 0-10c3-1 7-1 10-1 7 0 13 2 13 11l0 36 17 0 0-9-8 0 0-27c0-15-10-19-21-19-7 0-14 1-20 4z"/>
    </symbol>
  
    <symbol id="alltypes-09" viewBox="0 0 512 512">
      <path d="m491 238c0 0 1-1 1-2 0-11-8-22-22-22-13 0-21 11-21 21 0 7 4 15 10 20 7 5 13 10 13 12 0 2-1 3-3 3-2 0-4-4-4-8 0-1-1-1-1-1l-14 0c-1 0-1 1-1 1 0 16 7 27 22 27 13 0 21-11 21-24 0-7-5-14-12-19-6-4-10-7-10-10 0-1 0-2 1-2 2 0 3 1 3 3 0 1 1 1 1 1z m-97 49c0 1 0 2 1 2l35 0c1 0 1-1 1-1l0-19c0 0 0-1-1-1l-17 0c0 0 0 0 0 0l0-6c0-1 0-1 0-1l8 0c1 0 1-1 1-1l0-18c0 0 0-1-1-1l-7 0c-1 0-1 0-1 0l0-6c0 0 0-1 1-1l16 0c1 0 1 0 1-1l0-17c0-1 0-2-1-2l-35 0c-1 0-1 1-1 2z m-40-53c0 0 0-1 0-1 1 0 1 0 1 0 1 0 2 1 2 3l0 4c0 2 0 3-2 3-1 0-1-1-1-1z m-20 53c0 1 0 2 1 2l17 0c2 0 2-1 2-2l0-31c0-1 1-1 5-1 10 0 18-9 18-19 0-18-14-22-19-22l-23 0c-1 0-1 1-1 2z m-53-29c1 2 1 3 1 4l0 26c0 0 0 1 1 1l19 0c1 0 2-1 2-2l0-24c0-2 0-4 1-6l13-41c0-1-1-2-1-2l-18 0c0 0-1 1-1 2l-4 20c0 0-1 1-1 1 0 0 0-1 0-1l-5-21c0 0-1-1-1-1l-18 0c-1 0-1 1-1 1z m-42 31c1 0 1-1 1-2l0-51c0-1 1-2 1-2l10 0c1 0 2 0 2-1l0-17c0-1-1-2-2-2l-42 0c0 0-1 1-1 1l0 18c0 1 1 1 1 1l10 0c1 0 2 1 2 2l0 51c0 1 0 2 1 2z m-90-21c0 0 0 0 0 0l0-52c0-1-1-2-1-2l-17 0c-1 0-2 1-2 2l0 71c0 1 1 2 2 2l35 0c1 0 1-1 1-1l0-19c0 0 0-1-1-1l-17 0z m-55 0c0 0-1 0-1 0l0-52c0-1 0-2-1-2l-16 0c-1 0-2 1-2 2l0 71c0 1 1 2 1 2l36 0c0 0 1-1 1-1l0-19c0 0-1-1-1-1l-17 0z m-58-7c0 1 0 1-4 1 0 0 0 0 0-1l1-9c0-2 1-2 1-2 0 0 0 0 1 2z m-12-47c-1 0-1 1-1 2l-13 71c-1 1 0 2 1 2l16 0c1 0 1-1 1-1l2-15c0-1 1-1 1-1l5 0c1 0 1 0 1 1l2 15c1 0 1 1 2 1l16 0c1 0 1-1 1-2l-13-71c-1-1-1-2-2-2z"/>
    </symbol>
  
    <symbol id="alltypes-10" viewBox="0 0 512 512">
      <path d="m460 223c0 2 0 3 0 4 0 3 1 6 2 8 2 3 4 5 12 12 12 9 15 14 15 23 0 2 0 4-1 7 0-1 0-2 0-2 0-8-3-14-14-22-7-6-9-8-11-11-3-3-4-7-4-11 0-3 0-4 1-8m28-8l0 0c-1 5-1 7-3 7-1 0-1 0-2-2-3-4-7-7-11-7-8 0-14 8-14 18 0 5 1 9 4 13 2 2 5 5 11 9 5 5 7 6 9 9 3 4 5 8 5 12 0 8-5 14-11 14-9 0-17-13-18-30l-1 0 0 31 1 0c0-8 1-10 3-10 1 0 1 0 2 2 4 6 8 9 13 9 5 0 8-2 10-5 4-4 6-10 6-16 0-7-3-12-10-19-2-1-3-2-9-7-8-7-10-10-10-16 0-7 4-12 9-12 8 0 15 12 16 27l1 0 0-27z m-54 1l0 10c-3-5-5-8-9-10z m-15 33c3 0 4-2 6-4l0 9c-2-3-3-4-6-5m17 38l-11 0c5-2 8-5 11-11z m-32 0c2-1 2-2 2-6l0-58c0-5 0-6-2-7l9 0c-1 1-2 2-2 7l0 58c0 4 1 5 2 6z m34 2l0-28-1 0c0 7-1 13-3 17-3 6-9 9-15 9-4 0-5-1-5-6l0-31c5 0 7 1 9 3 2 3 3 7 3 13l2 0 0-34-2 0 0 2c0 10-3 14-11 15l-1 0 0-26c0-6 1-7 5-7 10 0 16 9 16 25l1 0 0-26-39 0 0 1 2 0c5 0 6 1 6 7l0 58c0 5-1 6-6 6l-2 0 0 2 41 0z m-70-70c7 2 12 8 12 16 0 8-5 14-11 16 4-3 6-9 6-16 0-7-3-13-7-16m-22 68c1-1 2-2 2-6l0-58c0-5-1-6-2-7l9 0c-2 1-2 2-2 7l0 58c0 4 0 5 2 6z m10-33l0-33c0-3 1-5 4-5 8 0 14 8 14 19 0 7-3 13-7 16-2 2-5 3-10 3l-1 0z m0 1l2 0c6 0 10-1 14-2 7-4 11-11 11-18 0-7-4-14-10-17-4-3-8-3-16-3l-19 0 0 1 3 0c4 0 6 1 6 5l0 61c0 4-1 5-5 5l-4 0 0 2 27 0 0-2-4 0c-4 0-5-1-5-5z m-56-6l0 32c0 4 1 5 2 6l-9 0c2-1 3-2 3-6l0-32-13-27c0 0 0-1 0-1l-1-2c-1-2-1-2-2-3l9 0c-1 1-1 1-1 3 0 0 0 1 0 3l1 0z m3-1l10-23 1-2c3-6 3-7 9-7l0-1-16 0 0 1 1 0c5 0 6 1 6 3 0 0-1 1-1 3l-1 2c0 1-1 1-1 2l-9 21-11-24c0-2-1-3-1-4 0-1 1-2 2-3 1 0 2 0 4 0l1 0 0-1-22 0 0 1 1 0c2 0 4 1 5 4l1 1c0 1 0 2 0 2l12 26 0 33c0 4-1 5-5 5l-4 0 0 2 28 0 0-2-5 0c-4 0-5-1-5-5z m-55-32l7 0 0 12c-2-6-4-10-7-12m-29 0l6 0c-3 3-5 8-6 15z m13 71c2-1 2-2 2-6l0-58c0-5 0-6-2-7l9 0c-2 1-2 2-2 7l0 58c0 4 0 5 2 6z m-15-72l0 27 2 0c1-15 5-26 11-26 2 0 3 2 3 6l0 60c0 4-1 5-5 5l-4 0 0 2 27 0 0-2-5 0c-3 0-4-1-4-5l0-60c0-4 1-6 3-6 6 0 10 11 11 26l1 0 0-27z m-48 72l-11 0c5-2 8-5 11-11z m-30 0c2-1 2-2 2-6l0-58c0-5 0-6-2-7l9 0c-1 1-2 2-2 7l0 58c0 4 1 5 2 6z m-7-72l0 1 2 0c5 0 6 1 6 7l0 58c0 5-1 6-6 6l-2 0 0 2 40 0 0-28-2 0c0 7-1 13-3 17-3 5-9 9-14 9-3 0-4-1-4-6l0-58c0-6 1-7 6-7l3 0 0-1z m-22 72l-11 0c5-2 8-5 11-11z m-30 0c1-1 2-2 2-6l0-58c0-5-1-6-2-7l9 0c-2 1-2 2-2 7l0 58c0 4 0 5 2 6z m-8-72l0 1 3 0c5 0 6 1 6 7l0 58c0 5-1 6-6 6l-3 0 0 2 40 0 0-28-1 0c0 7-1 13-4 17-2 5-8 9-13 9-3 0-4-1-4-6l0-58c0-6 0-7 5-7l3 0 0-1z m-40 1l17 66c0 2 1 4 2 5l-9 0c1-1 2-2 2-3 0-1 0-2-1-3l-15-63z m3 36l-10 0 5-22z m-8-35l0 2 1 3c0 2 1 3 1 5 0 1-1 4-1 7l-1 3-10 41c-2 8-3 9-8 9l0 2 15 0 0-2-1 0c-4 0-5-1-5-3 0-1 0-1 0-2l0-2c0-1 0-1 0-1l6-25 12 0 6 26c0 1 1 2 1 3 0 3-2 4-5 4l-3 0 0 2 22 0 0-2-1 0c-1 0-2 0-3-2-1-1-2-4-2-5l-17-67z"/>
    </symbol>
  
    <symbol id="alltypes-11" viewBox="0 0 512 512">
      <path d="m455 269l-13 0c1 11 11 20 22 20l0-13c-6 0-8-4-9-7z m37-2c0-13-11-23-22-23l0 14c6 0 9 4 9 9 0 4-3 9-9 9l0 13c11 0 22-10 22-22m-13-33l13 0c-1-12-11-21-22-21l0 14c6 0 8 3 9 7z m-37 2c0 12 11 22 22 22l1-13c-7 0-10-5-10-10 0-3 3-8 9-8l0-14c-12 0-22 11-22 23z m-36 24l20 0 0-14-20 0z m0 29l27 0 0-14-27 0z m0-61l27 0 0-13-27 0z m-18 61l14 0 0-74-14 0z m-10-51l0-1c0-10-7-22-21-22l-10 0 0 13 8 0c7 0 10 5 10 9 0 6-3 10-10 10l-8 0 0 14 10 0c14 0 21-13 21-23z m-50 50l14 0 0-73-14 0z m-43-43l7-16-6-14-15 0z m3 4l0 39 13 0 0-36 18-37-15 0z m-26-35l-49 0 0 14 49 0z m-17 18l-14 0 0 57 14 0z m-112 57l14 0 0-75-14 0z m45-14l-27 0 0 14 27 0z m-99 14l13 0 0-75-13 0z m44-14l-27 0 0 14 27 0z m-88-54l19 68 14 0-21-75-10 0z m-6 68l3-10 14 0-3-12-8 0 5-15-8-22-16 59z"/>
    </symbol>
  
    <symbol id="alltypes-12" viewBox="0 0 512 512">
      <path d="m448 274c1 1 2 1 3 1 1 0 2 0 2-1 1 0 1-1 1-2 0-1 0-2-1-2 0-1-1-1-2-1-1 0-2 0-3 1 0 0-1 1-1 2 0 1 1 2 1 2m4 8c0 1 1 1 2 1 1 0 2 0 2-1 1 0 1-1 1-2 0-1 0-2-1-2 0-1-1-1-2-1-1 0-2 0-2 1-1 0-1 1-1 2 0 1 0 2 1 2m7 5c0 1 1 1 2 1 1 0 2 0 3-1 0 0 1-1 1-2 0-1-1-2-1-3-1 0-2-1-3-1-1 0-2 1-2 1-1 1-1 2-1 3 0 1 0 2 1 2m8 2c1 1 2 1 3 1 1 0 1 0 2-1 1-1 1-2 1-2 0-1 0-2-1-3-1-1-1-1-2-1-1 0-2 0-3 1-1 1-1 2-1 3 0 0 0 1 1 2m9-1c1 1 1 1 2 1 1 0 2 0 3-1 0 0 1-1 1-2 0-1-1-2-1-2-1-1-2-1-3-1-1 0-1 0-2 1-1 0-1 1-1 2 0 1 0 2 1 2m8-3c0 0 1 1 2 1 1 0 2-1 2-1 1-1 1-2 1-3 0-1 0-2-1-2 0-1-1-1-2-1-1 0-2 0-2 1-1 0-1 1-1 2 0 1 0 2 1 3m4-8c1 1 2 1 3 1 1 0 2 0 2-1 1 0 1-1 1-2 0-1 0-2-1-2 0-1-1-1-2-1-1 0-2 0-3 1 0 0-1 1-1 2 0 1 1 2 1 2m1-8c1 1 2 1 3 1 0 0 1 0 2-1 1-1 1-2 1-3 0 0 0-1-1-2-1-1-2-1-2-1-1 0-2 0-3 1-1 1-1 2-1 2 0 1 0 2 1 3m-4-8c1 1 1 1 2 1 1 0 2 0 3-1 0 0 1-1 1-2 0-1-1-2-1-3-1 0-2-1-3-1-1 0-1 1-2 1-1 1-1 2-1 3 0 1 0 2 1 2m-7-5c1 1 1 1 2 1 1 0 2 0 3-1 0 0 1-1 1-2 0-1-1-2-1-3-1 0-2-1-3-1-1 0-1 1-2 1-1 1-1 2-1 3 0 1 0 2 1 2m-8-3c1 1 1 1 2 1 1 0 2 0 3-1 0-1 1-1 1-2 0-1-1-2-1-3-1 0-2-1-3-1-1 0-1 1-2 1-1 1-1 2-1 3 0 1 0 1 1 2m-8-3c1 0 1 1 2 1 1 0 2-1 3-1 0-1 1-2 1-3 0-1-1-2-1-2-1-1-2-1-3-1-1 0-1 0-2 1-1 0-1 1-1 2 0 1 0 2 1 3m31-25c-1-1-1-1-2-1-1 0-2 0-3 1 0 1-1 1-1 2 0 1 1 2 1 3 1 0 2 1 3 1 1 0 1-1 2-1 1-1 1-2 1-3 0-1 0-1-1-2m-5-7c0-1-1-1-2-1-1 0-2 0-3 1 0 0-1 1-1 2 0 1 1 2 1 3 1 0 2 1 3 1 1 0 2-1 2-1 1-1 1-2 1-3 0-1 0-2-1-2m-8-3c0-1-1-1-2-1-1 0-2 0-3 1 0 0-1 1-1 2 0 1 1 2 1 2 1 1 2 1 3 1 1 0 2 0 2-1 1 0 1-1 1-2 0-1 0-2-1-2m-25 29c1 1 2 1 3 1 1 0 1 0 2-1 1 0 1-1 1-2 0-1 0-2-1-2-1-1-1-1-2-1-1 0-2 0-3 1-1 0-1 1-1 2 0 1 0 2 1 2m-4-7c1 0 2 1 3 1 1 0 2-1 2-1 1-1 1-2 1-3 0-1 0-2-1-2 0-1-1-1-2-1-1 0-2 0-3 1 0 0-1 1-1 2 0 1 1 2 1 3m2-9c0 1 1 1 2 1 1 0 2 0 3-1 0-1 1-1 1-2 0-1-1-2-1-3-1-1-2-1-3-1-1 0-2 0-2 1-1 1-1 2-1 3 0 1 0 1 1 2m6-6c0 0 1 1 2 1 1 0 2-1 2-1 1-1 1-2 1-3 0-1 0-1-1-2 0-1-1-1-2-1-1 0-2 0-2 1-1 1-1 1-1 2 0 1 0 2 1 3m8-3c0 1 1 1 2 1 1 0 2 0 3-1 0-1 1-1 1-2 0-1-1-2-1-3-1-1-2-1-3-1-1 0-2 0-2 1-1 1-1 2-1 3 0 1 0 1 1 2m-38-4c-1 0-1-1-2-1-1 0-2 1-3 1 0 1-1 2-1 3 0 1 1 2 1 2 1 1 2 1 3 1 1 0 1 0 2-1 1 0 1-1 1-2 0-1 0-2-1-3m-9 0c-1 0-2-1-3-1 0 0-1 1-2 1-1 1-1 2-1 3 0 1 0 2 1 2 1 1 2 1 2 1 1 0 2 0 3-1 1 0 1-1 1-2 0-1 0-2-1-3m-9 0c-1 0-2-1-3-1-1 0-1 1-2 1-1 1-1 2-1 3 0 1 0 2 1 2 1 1 1 1 2 1 1 0 2 0 3-1 0 0 1-1 1-2 0-1-1-2-1-3m18 34c-1-1-1-1-2-1-1 0-2 0-3 1 0 1-1 2-1 3 0 0 1 1 1 2 1 1 2 1 3 1 1 0 1 0 2-1 1-1 1-2 1-2 0-1 0-2-1-3m-9 0c-1-1-2-1-3-1 0 0-1 0-2 1-1 1-1 2-1 3 0 0 0 1 1 2 1 1 2 1 2 1 1 0 2 0 3-1 1-1 1-2 1-2 0-1 0-2-1-3m-9 0c-1-1-2-1-3-1-1 0-1 0-2 1-1 1-1 2-1 3 0 0 0 1 1 2 1 1 1 1 2 1 1 0 2 0 3-1 0-1 1-2 1-2 0-1-1-2-1-3m27-34c0 0-1-1-2-1-1 0-2 1-3 1 0 1-1 2-1 3 0 1 1 2 1 2 1 1 2 1 3 1 1 0 2 0 2-1 1 0 1-1 1-2 0-1 0-2-1-3m0 68c0-1-1-1-2-1-1 0-2 0-3 1 0 1-1 1-1 2 0 1 1 2 1 3 1 0 2 1 3 1 1 0 2-1 2-1 1-1 1-2 1-3 0-1 0-1-1-2m-9 0c-1-1-1-1-2-1-1 0-2 0-3 1 0 1-1 1-1 2 0 1 1 2 1 3 1 0 2 1 3 1 1 0 1-1 2-1 1-1 1-2 1-3 0-1 0-1-1-2m-27-68c-1 0-2-1-3-1-1 0-1 1-2 1-1 1-1 2-1 3 0 1 0 2 1 2 1 1 1 1 2 1 1 0 2 0 3-1 0 0 1-1 1-2 0-1-1-2-1-3m0 9c-1-1-2-1-3-1-1 0-1 0-2 1-1 1-1 1-1 2 0 1 0 2 1 3 1 0 1 1 2 1 1 0 2-1 3-1 0-1 1-2 1-3 0-1-1-1-1-2m0 8c-1 0-2-1-3-1-1 0-1 1-2 1-1 1-1 2-1 3 0 1 0 1 1 2 1 1 1 1 2 1 1 0 2 0 3-1 0-1 1-1 1-2 0-1-1-2-1-3m0 9c-1-1-2-1-3-1-1 0-1 0-2 1-1 0-1 1-1 2 0 1 0 2 1 3 1 0 1 1 2 1 1 0 2-1 3-1 0-1 1-2 1-3 0-1-1-2-1-2m0 8c-1-1-2-1-3-1-1 0-1 0-2 1-1 1-1 2-1 3 0 0 0 1 1 2 1 1 1 1 2 1 1 0 2 0 3-1 0-1 1-2 1-2 0-1-1-2-1-3m0 9c-1-1-2-1-3-1-1 0-1 0-2 1-1 0-1 1-1 2 0 1 0 2 1 3 1 0 1 1 2 1 1 0 2-1 3-1 0-1 1-2 1-3 0-1-1-2-1-2m0 8c-1-1-2-1-3-1-1 0-1 0-2 1-1 1-1 2-1 3 0 0 0 1 1 2 1 1 1 1 2 1 1 0 2 0 3-1 0-1 1-2 1-2 0-1-1-2-1-3m0 9c-1-1-2-2-3-2-1 0-1 1-2 2-1 0-1 1-1 2 0 1 0 2 1 2 1 1 1 1 2 1 1 0 2 0 3-1 0 0 1-1 1-2 0-1-1-2-1-2m18 8c-1-1-2-1-3-1 0 0-1 0-2 1-1 1-1 1-1 2 0 1 0 2 1 3 1 0 2 1 2 1 1 0 2-1 3-1 1-1 1-2 1-3 0-1 0-1-1-2m-18 0c-1-1-2-1-3-1-1 0-1 0-2 1-1 1-1 1-1 2 0 1 0 2 1 3 1 0 1 1 2 1 1 0 2-1 3-1 0-1 1-2 1-3 0-1-1-1-1-2m9 0c-1-1-2-1-3-1-1 0-1 0-2 1-1 1-1 1-1 2 0 1 0 2 1 3 1 0 1 1 2 1 1 0 2-1 3-1 0-1 1-2 1-3 0-1-1-1-1-2m-32-36c-1-1-2-1-3-1-1 0-2 0-2 1-1 0-1 1-1 2 0 1 0 2 1 3 0 0 1 1 2 1 1 0 2-1 3-1 0-1 1-2 1-3 0-1-1-2-1-2m4-8c0 0-1-1-2-1-1 0-2 1-3 1 0 1-1 2-1 3 0 1 1 1 1 2 1 1 2 1 3 1 1 0 2 0 2-1 1-1 1-1 1-2 0-1 0-2-1-3m0-9c0 0-1-1-2-1-1 0-2 1-3 1 0 1-1 2-1 3 0 1 1 2 1 2 1 1 2 1 3 1 1 0 2 0 2-1 1 0 1-1 1-2 0-1 0-2-1-3m-4-7c-1-1-1-1-2-1-1 0-2 0-3 1 0 0-1 1-1 2 0 1 1 2 1 3 1 0 2 1 3 1 1 0 1-1 2-1 1-1 1-2 1-3 0-1 0-2-1-2m-7-6c0 0-1-1-2-1-1 0-2 1-3 1 0 1-1 2-1 3 0 1 1 2 1 2 1 1 2 1 3 1 1 0 2 0 2-1 1 0 1-1 1-2 0-1 0-2-1-3m0 35c-1-1-2-1-3-1-1 0-2 0-2 1-1 0-1 1-1 2 0 1 0 2 1 3 0 0 1 1 2 1 1 0 2-1 3-1 0-1 1-2 1-3 0-1-1-2-1-2m-9 1c-1 0-2-1-3-1-1 0-1 1-2 1-1 1-1 2-1 3 0 1 0 1 1 2 1 1 1 1 2 1 1 0 2 0 3-1 1-1 1-1 1-2 0-1 0-2-1-3m-9 0c-1 0-2-1-3-1 0 0-1 1-2 1-1 1-1 2-1 3 0 1 0 1 1 2 1 1 2 1 2 1 1 0 2 0 3-1 1-1 1-1 1-2 0-1 0-2-1-3m10-38c-1 0-2-1-3-1-1 0-2 1-2 1-1 1-1 2-1 3 0 1 0 2 1 2 0 1 1 1 2 1 1 0 2 0 3-1 0 0 1-1 1-2 0-1-1-2-1-3m-9 0c-1 0-2-1-3-1-1 0-1 1-2 1-1 1-1 2-1 3 0 1 0 2 1 2 1 1 1 1 2 1 1 0 2 0 3-1 1 0 1-1 1-2 0-1 0-2-1-3m-9 0c-1 0-2-1-3-1 0 0-1 1-2 1-1 1-1 2-1 3 0 1 0 2 1 2 1 1 2 1 2 1 1 0 2 0 3-1 1 0 1-1 1-2 0-1 0-2-1-3m0 9c-1-1-2-1-3-1 0 0-1 0-2 1-1 1-1 1-1 2 0 1 0 2 1 3 1 0 2 1 2 1 1 0 2-1 3-1 1-1 1-2 1-3 0-1 0-1-1-2m0 8c-1 0-2-1-3-1 0 0-1 1-2 1-1 1-1 2-1 3 0 1 0 1 1 2 1 1 2 1 2 1 1 0 2 0 3-1 1-1 1-1 1-2 0-1 0-2-1-3m0 9c-1-1-2-1-3-1 0 0-1 0-2 1-1 0-1 1-1 2 0 1 0 2 1 3 1 0 2 1 2 1 1 0 2-1 3-1 1-1 1-2 1-3 0-1 0-2-1-2m0 8c-1-1-2-1-3-1 0 0-1 0-2 1-1 1-1 2-1 3 0 0 0 1 1 2 1 1 2 1 2 1 1 0 2 0 3-1 1-1 1-2 1-2 0-1 0-2-1-3m0 9c-1-1-2-1-3-1 0 0-1 0-2 1-1 0-1 1-1 2 0 1 0 2 1 3 1 0 2 1 2 1 1 0 2-1 3-1 1-1 1-2 1-3 0-1 0-2-1-2m0 8c-1-1-2-1-3-1 0 0-1 0-2 1-1 1-1 2-1 3 0 0 0 1 1 2 1 1 2 1 2 1 1 0 2 0 3-1 1-1 1-2 1-2 0-1 0-2-1-3m0 9c-1-1-2-2-3-2 0 0-1 1-2 2-1 0-1 1-1 2 0 1 0 2 1 2 1 1 2 1 2 1 1 0 2 0 3-1 1 0 1-1 1-2 0-1 0-2-1-2m0 8c-1-1-2-1-3-1 0 0-1 0-2 1-1 1-1 1-1 2 0 1 0 2 1 3 1 0 2 1 2 1 1 0 2-1 3-1 1-1 1-2 1-3 0-1 0-1-1-2m-27-55c0 1 1 1 2 1 1 0 2 0 3-1 0 0 1-1 1-2 0-1-1-2-1-3-1 0-2-1-3-1-1 0-2 1-2 1-1 1-1 2-1 3 0 1 0 2 1 2m-5 8c1 1 2 1 3 1 0 0 1 0 2-1 1 0 1-1 1-2 0-1 0-2-1-2-1-1-2-2-2-2-1 0-2 1-3 2-1 0-1 1-1 2 0 1 0 2 1 2m-5 8c1 1 2 1 3 1 1 0 2 0 2-1 1 0 1-1 1-2 0-1 0-2-1-3 0 0-1-1-2-1-1 0-2 1-3 1 0 1-1 2-1 3 0 1 1 2 1 2m-4 8c1 1 1 1 2 1 1 0 2 0 3-1 0 0 1-1 1-2 0-1-1-2-1-3-1 0-2-1-3-1-1 0-1 1-2 1-1 1-1 2-1 3 0 1 0 2 1 2m-19-29c0 0-1-1-2-1-1 0-2 1-2 1-1 1-1 2-1 3 0 1 0 2 1 2 0 1 1 1 2 1 1 0 2 0 2-1 1 0 1-1 1-2 0-1 0-2-1-3m5 9c-1-1-1-2-2-2-1 0-2 1-3 2 0 0-1 1-1 2 0 1 1 2 1 2 1 1 2 1 3 1 1 0 1 0 2-1 1 0 1-1 1-2 0-1 0-2-1-2m5 7c-1 0-2-1-3-1-1 0-1 1-2 1-1 1-1 2-1 3 0 1 0 2 1 2 1 1 1 1 2 1 1 0 2 0 3-1 0 0 1-1 1-2 0-1-1-2-1-3m31-24c-1 0-2-1-3-1-1 0-2 1-2 1-1 1-1 2-1 3 0 1 0 2 1 2 0 1 1 1 2 1 1 0 2 0 3-1 0 0 1-1 1-2 0-1-1-2-1-3m-44 0c-1 0-1-1-2-1-1 0-2 1-3 1 0 1-1 2-1 3 0 1 1 2 1 2 1 1 2 1 3 1 1 0 1 0 2-1 1 0 1-1 1-2 0-1 0-2-1-3m17 32c0 0-1-1-2-1-1 0-2 1-3 1 0 1-1 2-1 3 0 1 1 2 1 2 1 1 2 1 3 1 1 0 2 0 2-1 1 0 1-1 1-2 0-1 0-2-1-3m5 8c-1 0-1-1-2-1-1 0-2 1-3 1 0 1-1 2-1 3 0 1 1 1 1 2 1 1 2 1 3 1 1 0 1 0 2-1 1-1 1-1 1-2 0-1 0-2-1-3m0 9c-1 0-1-1-2-1-1 0-2 1-3 1 0 1-1 2-1 3 0 1 1 2 1 2 1 1 2 1 3 1 1 0 1 0 2-1 1 0 1-1 1-2 0-1 0-2-1-3m0 10c-1-1-1-1-2-1-1 0-2 0-3 1 0 0-1 1-1 2 0 1 1 2 1 2 1 1 2 1 3 1 1 0 1 0 2-1 1 0 1-1 1-2 0-1 0-2-1-2m0 9c-1-1-1-1-2-1-1 0-2 0-3 1 0 1-1 1-1 2 0 1 1 2 1 3 1 0 2 1 3 1 1 0 1-1 2-1 1-1 1-2 1-3 0-1 0-1-1-2m-86-63c1 1 1 1 2 1 1 0 2 0 3-1 0 0 1-1 1-2 0-1-1-2-1-3-1 0-2-1-3-1-1 0-1 1-2 1-1 1-1 2-1 3 0 1 0 2 1 2m-9 0c1 1 2 1 3 1 0 0 1 0 2-1 1 0 1-1 1-2 0-1 0-2-1-3-1 0-2-1-2-1-1 0-2 1-3 1-1 1-1 2-1 3 0 1 0 2 1 2m50-5c-1 0-2-1-3-1-1 0-2 1-2 1-1 1-1 2-1 3 0 1 0 2 1 2 0 1 1 1 2 1 1 0 2 0 3-1 0 0 1-1 1-2 0-1-1-2-1-3m9 0c-1 0-2-1-3-1-1 0-2 1-2 1-1 1-1 2-1 3 0 1 0 2 1 2 0 1 1 1 2 1 1 0 2 0 3-1 0 0 1-1 1-2 0-1-1-2-1-3m-18 0c-1 0-2-1-3-1-1 0-1 1-2 1-1 1-1 2-1 3 0 1 0 2 1 2 1 1 1 1 2 1 1 0 2 0 3-1 0 0 1-1 1-2 0-1-1-2-1-3m-18 0c-1 0-2-1-3-1-1 0-1 1-2 1-1 1-1 2-1 3 0 1 0 2 1 2 1 1 1 1 2 1 1 0 2 0 3-1 0 0 1-1 1-2 0-1-1-2-1-3m9 0c-1 0-2-1-3-1-1 0-2 1-2 1-1 1-1 2-1 3 0 1 0 2 1 2 0 1 1 1 2 1 1 0 2 0 3-1 0 0 1-1 1-2 0-1-1-2-1-3m0 9c-1-1-2-1-3-1-1 0-2 0-2 1-1 1-1 1-1 2 0 1 0 2 1 3 0 0 1 1 2 1 1 0 2-1 3-1 0-1 1-2 1-3 0-1-1-1-1-2m0 8c-1 0-2-1-3-1-1 0-2 1-2 1-1 1-1 2-1 3 0 1 0 1 1 2 0 1 1 1 2 1 1 0 2 0 3-1 0-1 1-1 1-2 0-1-1-2-1-3m0 9c-1-1-2-1-3-1-1 0-2 0-2 1-1 0-1 1-1 2 0 1 0 2 1 3 0 0 1 1 2 1 1 0 2-1 3-1 0-1 1-2 1-3 0-1-1-2-1-2m0 8c-1-1-2-1-3-1-1 0-2 0-2 1-1 1-1 2-1 3 0 0 0 1 1 2 0 1 1 1 2 1 1 0 2 0 3-1 0-1 1-2 1-2 0-1-1-2-1-3m0 9c-1-1-2-1-3-1-1 0-2 0-2 1-1 0-1 1-1 2 0 1 0 2 1 3 0 0 1 1 2 1 1 0 2-1 3-1 0-1 1-2 1-3 0-1-1-2-1-2m0 8c-1-1-2-1-3-1-1 0-2 0-2 1-1 1-1 2-1 3 0 0 0 1 1 2 0 1 1 1 2 1 1 0 2 0 3-1 0-1 1-2 1-2 0-1-1-2-1-3m0 9c-1-1-2-2-3-2-1 0-2 1-2 2-1 0-1 1-1 2 0 1 0 2 1 2 0 1 1 1 2 1 1 0 2 0 3-1 0 0 1-1 1-2 0-1-1-2-1-2m0 8c-1-1-2-1-3-1-1 0-2 0-2 1-1 1-1 1-1 2 0 1 0 2 1 3 0 0 1 1 2 1 1 0 2-1 3-1 0-1 1-2 1-3 0-1-1-1-1-2m-64 0c0-1-1-1-2-1-1 0-2 0-3 1 0 1-1 1-1 2 0 1 1 2 1 3 1 0 2 1 3 1 1 0 2-1 2-1 1-1 1-2 1-3 0-1 0-1-1-2m-9 0c0-1-1-1-2-1-1 0-2 0-3 1 0 1-1 1-1 2 0 1 1 2 1 3 1 0 2 1 3 1 1 0 2-1 2-1 1-1 1-2 1-3 0-1 0-1-1-2m-26-68c-1 0-2-1-3-1-1 0-2 1-2 1-1 1-1 2-1 3 0 1 0 2 1 2 0 1 1 1 2 1 1 0 2 0 3-1 0 0 1-1 1-2 0-1-1-2-1-3m0 9c-1-1-2-1-3-1-1 0-2 0-2 1-1 1-1 1-1 2 0 1 0 2 1 3 0 0 1 1 2 1 1 0 2-1 3-1 0-1 1-2 1-3 0-1-1-1-1-2m0 8c-1 0-2-1-3-1-1 0-2 1-2 1-1 1-1 2-1 3 0 1 0 1 1 2 0 1 1 1 2 1 1 0 2 0 3-1 0-1 1-1 1-2 0-1-1-2-1-3m0 9c-1-1-2-1-3-1-1 0-2 0-2 1-1 0-1 1-1 2 0 1 0 2 1 3 0 0 1 1 2 1 1 0 2-1 3-1 0-1 1-2 1-3 0-1-1-2-1-2m0 8c-1-1-2-1-3-1-1 0-2 0-2 1-1 1-1 2-1 3 0 0 0 1 1 2 0 1 1 1 2 1 1 0 2 0 3-1 0-1 1-2 1-2 0-1-1-2-1-3m0 9c-1-1-2-1-3-1-1 0-2 0-2 1-1 0-1 1-1 2 0 1 0 2 1 3 0 0 1 1 2 1 1 0 2-1 3-1 0-1 1-2 1-3 0-1-1-2-1-2m0 8c-1-1-2-1-3-1-1 0-2 0-2 1-1 1-1 2-1 3 0 0 0 1 1 2 0 1 1 1 2 1 1 0 2 0 3-1 0-1 1-2 1-2 0-1-1-2-1-3m0 9c-1-1-2-2-3-2-1 0-2 1-2 2-1 0-1 1-1 2 0 1 0 2 1 2 0 1 1 1 2 1 1 0 2 0 3-1 0 0 1-1 1-2 0-1-1-2-1-2m17 8c0-1-1-1-2-1-1 0-2 0-2 1-1 1-1 1-1 2 0 1 0 2 1 3 0 0 1 1 2 1 1 0 2-1 2-1 1-1 1-2 1-3 0-1 0-1-1-2m-17 0c-1-1-2-1-3-1-1 0-2 0-2 1-1 1-1 1-1 2 0 1 0 2 1 3 0 0 1 1 2 1 1 0 2-1 3-1 0-1 1-2 1-3 0-1-1-1-1-2m8 0c0-1-1-1-2-1-1 0-2 0-2 1-1 1-1 1-1 2 0 1 0 2 1 3 0 0 1 1 2 1 1 0 2-1 2-1 1-1 1-2 1-3 0-1 0-1-1-2m-25 0c-1-1-2-1-3-1-1 0-2 0-2 1-1 1-1 1-1 2 0 1 0 2 1 3 0 0 1 1 2 1 1 0 2-1 3-1 0-1 1-2 1-3 0-1-1-1-1-2m-9 0c-1-1-2-1-3-1-1 0-2 0-2 1-1 1-1 1-1 2 0 1 0 2 1 3 0 0 1 1 2 1 1 0 2-1 3-1 0-1 1-2 1-3 0-1-1-1-1-2m-27-68c-1 0-2-1-3-1-1 0-1 1-2 1-1 1-1 2-1 3 0 1 0 2 1 2 1 1 1 1 2 1 1 0 2 0 3-1 1 0 1-1 1-2 0-1 0-2-1-3m0 9c-1-1-2-1-3-1-1 0-1 0-2 1-1 1-1 1-1 2 0 1 0 2 1 3 1 0 1 1 2 1 1 0 2-1 3-1 1-1 1-2 1-3 0-1 0-1-1-2m0 8c-1 0-2-1-3-1-1 0-1 1-2 1-1 1-1 2-1 3 0 1 0 1 1 2 1 1 1 1 2 1 1 0 2 0 3-1 1-1 1-1 1-2 0-1 0-2-1-3m0 9c-1-1-2-1-3-1-1 0-1 0-2 1-1 0-1 1-1 2 0 1 0 2 1 3 1 0 1 1 2 1 1 0 2-1 3-1 1-1 1-2 1-3 0-1 0-2-1-2m0 8c-1-1-2-1-3-1-1 0-1 0-2 1-1 1-1 2-1 3 0 0 0 1 1 2 1 1 1 1 2 1 1 0 2 0 3-1 1-1 1-2 1-2 0-1 0-2-1-3m0 9c-1-1-2-1-3-1-1 0-1 0-2 1-1 0-1 1-1 2 0 1 0 2 1 3 1 0 1 1 2 1 1 0 2-1 3-1 1-1 1-2 1-3 0-1 0-2-1-2m0 8c-1-1-2-1-3-1-1 0-1 0-2 1-1 1-1 2-1 3 0 0 0 1 1 2 1 1 1 1 2 1 1 0 2 0 3-1 1-1 1-2 1-2 0-1 0-2-1-3m0 9c-1-1-2-2-3-2-1 0-1 1-2 2-1 0-1 1-1 2 0 1 0 2 1 2 1 1 1 1 2 1 1 0 2 0 3-1 1 0 1-1 1-2 0-1 0-2-1-2m18 8c-1-1-2-1-3-1-1 0-1 0-2 1-1 1-1 1-1 2 0 1 0 2 1 3 1 0 1 1 2 1 1 0 2-1 3-1 0-1 1-2 1-3 0-1-1-1-1-2m-18 0c-1-1-2-1-3-1-1 0-1 0-2 1-1 1-1 1-1 2 0 1 0 2 1 3 1 0 1 1 2 1 1 0 2-1 3-1 1-1 1-2 1-3 0-1 0-1-1-2m9 0c-1-1-2-1-3-1-1 0-1 0-2 1-1 1-1 1-1 2 0 1 0 2 1 3 1 0 1 1 2 1 1 0 2-1 3-1 0-1 1-2 1-3 0-1-1-1-1-2m-62-26c0-1-1-1-2-1-1 0-2 0-2 1-1 1-1 2-1 3 0 1 0 1 1 2 0 1 1 1 2 1 1 0 2 0 2-1 1-1 2-1 2-2 0-1-1-2-2-3m9 0c0-1-1-1-2-1-1 0-2 0-2 1-1 1-1 2-1 3 0 1 0 1 1 2 0 1 1 1 2 1 1 0 2 0 2-1 1-1 1-1 1-2 0-1 0-2-1-3m9 0c0-1-1-1-2-1-1 0-2 0-3 1 0 1-1 2-1 3 0 1 1 1 1 2 1 1 2 1 3 1 1 0 2 0 2-1 1-1 1-1 1-2 0-1 0-2-1-3m-7-39c0-1-1-2-1-3-1 0-2-1-3-1-1 0-2 1-2 1-1 1-1 2-1 3 0 1 0 2 1 2 0 1 1 1 2 1 1 0 2 0 3-1 0 0 1-1 1-2m22 56c0-1-1-1-2-1-1 0-2 0-2 1-1 1-1 2-1 3 0 1 0 1 1 2 0 1 1 1 2 1 1 0 2 0 2-1 1-1 1-1 1-2 0-1 0-2-1-3m-3-8c0-1-1-1-2-1-1 0-2 0-3 1 0 0-1 1-1 2 0 1 1 2 1 3 1 0 2 1 3 1 1 0 2-1 2-1 1-1 1-2 1-3 0-1 0-2-1-2m-3-9c-1-1-1-1-2-1-1 0-2 0-3 1-1 1-1 2-1 3 0 1 0 1 1 2 1 1 2 1 3 1 1 0 1 0 2-1 1-1 1-1 1-2 0-1 0-2-1-3m-3-8c-1-1-2-1-3-1-1 0-1 0-2 1-1 0-1 1-1 2 0 1 0 2 1 3 1 0 1 1 2 1 1 0 2-1 3-1 1-1 1-2 1-3 0-1 0-2-1-2m-3-9c-1-1-2-1-3-1-1 0-2 0-2 1-1 1-1 2-1 3 0 0 0 1 1 2 0 1 1 1 2 1 1 0 2 0 3-1 0-1 1-2 1-2 0-1-1-2-1-3m-4-8c0-1-1-2-2-2-1 0-2 1-2 2-1 0-1 1-1 2 0 1 0 2 1 2 0 1 1 1 2 1 1 0 2 0 2-1 1 0 1-1 1-2 0-1 0-2-1-2m-3-9c-1-1-1-1-2-1-1 0-2 0-3 1 0 1-1 1-1 2 0 1 1 2 1 3 1 0 2 1 3 1 1 0 1-1 2-1 1-1 1-2 1-3 0-1 0-1-1-2m-9 0c-1-1-2-1-3-1-1 0-2 0-2 1-1 1-1 1-1 2 0 1 0 2 1 3 0 0 1 1 2 1 1 0 2-1 3-1 0-1 1-2 1-3 0-1-1-1-1-2m-4 9c0-1-1-2-2-2-1 0-2 1-3 2 0 0-1 1-1 2 0 1 1 2 1 2 1 1 2 1 3 1 1 0 2 0 2-1 1 0 1-1 1-2 0-1 0-2-1-2m-3 8c-1-1-1-1-2-1-1 0-2 0-3 1 0 1-1 2-1 3 0 0 1 1 1 2 1 1 2 1 3 1 1 0 1 0 2-1 1-1 1-2 1-2 0-1 0-2-1-3m-3 9c-1-1-2-1-3-1-1 0-1 0-2 1-1 0-1 1-1 2 0 1 0 2 1 3 1 0 1 1 2 1 1 0 2-1 3-1 1-1 1-2 1-3 0-1 0-2-1-2m-3 8c-1-1-2-1-3-1-1 0-1 0-2 1-1 1-1 2-1 3 0 1 0 1 1 2 1 1 1 1 2 1 1 0 2 0 3-1 0-1 1-1 1-2 0-1-1-2-1-3m-4 9c0-1-1-1-2-1-1 0-2 0-2 1-1 0-1 1-1 2 0 1 0 2 1 3 0 0 1 1 2 1 1 0 2-1 2-1 1-1 1-2 1-3 0-1 0-2-1-2m-3 8c0-1-1-1-2-1-1 0-2 0-3 1 0 1-1 2-1 3 0 1 1 1 1 2 1 1 2 1 3 1 1 0 2 0 2-1 1-1 1-1 1-2 0-1 0-2-1-3m-3 9c-1-1-2-1-2-1-1 0-2 0-3 1-1 1-1 1-1 2 0 1 0 2 1 3 1 0 2 1 3 1 0 0 1-1 2-1 1-1 1-2 1-3 0-1 0-1-1-2m55 0c-1-1-2-1-3-1-1 0-1 0-2 1-1 1-1 1-1 2 0 1 0 2 1 3 1 0 1 1 2 1 1 0 2-1 3-1 0-1 1-2 1-3 0-1-1-1-1-2"/>
    </symbol>
  
    <symbol id="alltypes-13" viewBox="0 0 512 512">
      <path d="m484 256l-6 0 0-5-5 0 0-11 16 0 0 6 5 0 0-6-5 0 0-5-22 0 0 5-5 0 0 16 5 0 0 6 6 0 0 5 5 0 0 5 6 0 0 11-17 0 0-5-5 0 0 5 5 0 0 6 22 0 0-6 5 0 0-16-5 0 0-5-5 0z m-75-10l6 0 0-6 10 0 0 6 6 0 0 10-22 0z m0 16l32 0 0-16-5 0 0-6-5 0 0-5-22 0 0 5-5 0 0 6-6 0 0 32 6 0 0 5 5 0 0 6 22 0 0-6 5 0 0-5 5 0 0-6-5 0 0 6-5 0 0 5-16 0 0-5-6 0z m-40 16l-6 0 0 5-10 0 0-5-6 0 0-32 6 0 0-6 10 0 0 6 6 0z m-22 5l6 0 0 6 16 0 0-6 5 0 0-5 6 0 0-32-6 0 0-6-5 0 0-5-16 0 0 5-6 0 0-5-11 0 0 5-5 0 0 6 5 0 0 53-5 0 0 6 22 0 0-6-6 0z m-77-32l5 0 0 16 6 0 0 11 5 0 0 16-11 0 0 11 11 0 0-11 5 0 0-16 6 0 0-11 5 0 0-16 6 0 0-11 5 0 0-5-16 0 0 5 5 0 0 11-5 0 0 16-11 0 0-16-5 0 0-11 5 0 0-5-21 0 0 5 5 0z m-35-11l11 0 0-5-11 0 0-11-5 0 0 5-6 0 0 6-5 0 0 5 5 0 0 43 6 0 0 6 16 0 0-6-11 0z m-84-27l-11 0 0 6-5 0 0 5 5 0 0 59-5 0 0 6 21 0 0-6-5 0z m-49 0l-11 0 0 6-5 0 0 5 5 0 0 59-5 0 0 6 22 0 0-6-6 0z m-52 65l-6 0 0 5-16 0 0-16 6 0 0-5 16 0z m-22-32l6 0 0-6 16 0 0 16-16 0 0 6-11 0 0 5-5 0 0 16 5 0 0 6 27 0 0-6 5 0 0 6 11 0 0-6-5 0 0-43-6 0 0-5-21 0 0 5-11 0 0 11 5 0z"/>
    </symbol>
  
    <symbol id="alltypes-14" viewBox="0 0 512 512">
      <path d="m493 270c-2-2-4-4-7-6-3-1-6-3-9-5-1-1-2-3-2-6 0-3 0-5 1-8 1-2 2-3 3-3 1 0 1 2 1 6 0 4 1 7 1 7 0 1 2 2 5 3 3 1 4 1 5 1 2 0 3-1 3-3 0 0 0-2-1-4 0-2 0-4 0-7 0-3-1-5-2-7-1-1-2-1-4-2-3 0-5 0-5-1-6-2-10-3-11-3-3 0-5 2-7 5-2 4-2 7-2 11 0 5 1 9 3 12 2 2 6 4 12 7 2 1 4 5 4 10 0 3-1 5-2 5-1 0-2-1-2-4-1-3-1-5-1-5-1-1-2-1-5-1-3-1-5-1-7-1-1 0-2 0-2 0-1 1-2 1-2 2 0 1 1 2 2 3 1 2 2 4 3 6 1 2 3 4 4 5 1 1 2 1 3 1 1 1 2 1 3 1 0 0 2 1 4 1 1 0 2 1 3 1 4-1 7-2 10-4 2-2 3-4 3-8 0-4-1-7-2-9m-70-23c0 5 0 9-1 9-2 2-4 2-7 2 0-3 1-6 3-10 2-3 4-5 5-5 0 0 0 2 0 4m11 22c-3-1-5-2-6-1 0 2-1 3-2 5 0 2-1 3-2 5-2 2-4 3-5 3-1 0-2-2-3-5-1-4-1-7-1-10 7 0 13-1 20-3 1-2 2-5 2-9 0-3 0-6-1-9 0-3-1-4-2-5-2-2-5-4-8-5-3-1-5-2-7-2-5 0-10 4-13 10-3 6-5 13-5 21 0 8 2 15 6 20 1 1 4 3 8 4 4 2 7 3 9 3 1 0 2 0 2-1 3-1 6-5 10-10 3-4 4-7 3-8 0-1-2-2-5-3m-66-14c0 4-1 9-4 15-3 5-6 8-10 10 3-23 6-34 8-34 4 1 6 3 6 9m9 21c3-8 5-15 5-22 0-13-6-20-18-23-2 0-4 1-6 5-1 3-3 6-4 9 1-5 1-9 1-11 0-1 0-1 0-2-1-1-1-2-2-2-1 0-2 0-6-1-3 0-5-1-6-1-2 0-2 0-3 1 0 1 0 2 1 3 0 1 1 2 1 4l0 61c0 0-1 1-1 3-1 2-1 3-1 4 0 1 1 2 3 3 2 0 3 1 5 2 3 1 5 1 7 1 2 0 3-1 3-2 0-1-1-2-1-3-1-1-1-2-1-3l0-18c4 4 7 6 8 6 1 0 1 0 2 0 5-3 9-7 13-14m-65-41c-3-1-5-2-7-2-1 0-1 0-2 1-1 0-2 1-2 2 0 1-1 3-1 4l-9 23-8-23c-1-1-1-2-1-4-1-1-2-2-3-3 0 0 0 0-1 0-2 0-4 1-8 3-3 2-5 3-5 4 1 1 1 3 2 4 1 1 1 1 2 1l15 38-3 10c0 1-1 2-2 3-1 1-1 2-1 3 0 1 0 2 1 3 1 1 3 2 6 3 2 1 4 1 6 1 0 0 1 0 1 0 1 0 1-1 2-3 0-1 0-3 0-4l19-54c0 0 1-1 2-3 1-1 1-2 1-3 0 0 0-1 0-1 0-1-2-2-4-3m-73 3c-2-3-3-4-4-4l-3 0 0-5c0 0 1-1 2-2 1-2 1-3 1-3 0-1 0-1 0-1-1-1-3-2-6-3-3 0-6-1-8-1-1 0-2 0-3 0-1 1-1 2-1 3 0 1 0 3 1 4l0 8-7 0c-1 0-1 1-2 1-1 1-1 2-1 3 0 1 1 3 2 5 2 2 4 3 5 3l3 0 0 33c0 1 0 2-1 4 0 1-1 2-1 2 1 1 3 3 7 4 3 1 5 2 7 1 2 0 4-1 4-2 0-1-1-2-1-3 0-1-1-2-1-2l0-37c3 0 5 0 6 1 0 0 1 0 1 0 1 0 1-1 2-2 1 0 1-1 1-3 0 0-1-2-3-4m-99-26c-2 0-4-1-6-1-2 0-3 0-4 0-2 1-3 2-3 3 0 1 0 1 0 1 0 1 0 1 0 2l0 66c0 0 0 1 0 1 0 1 0 1 0 1 0 1 0 2 2 3 0 1 2 2 6 3 3 1 5 1 6 1 1 0 2-3 2-7 0 0 0 0-1-1 0-1 0-1 0-2l0-58c0-2 1-4 1-5 0-1 0-1 1-2 0 0 0-1 0-2 0-1-1-2-4-3m-42 0c-2 0-4-1-6-1-2 0-3 0-4 0-2 1-3 2-3 3 0 1 0 1 0 1 0 1 0 1 0 2l0 66c0 0 0 1 0 1 0 1 0 1 0 1 0 1 0 2 2 3 0 1 2 2 6 3 3 1 5 1 6 1 1 0 2-3 2-7 0 0 0 0-1-1 0-1 0-1 0-2l0-58c0-2 1-4 1-5 0-1 0-1 1-2 0 0 0-1 0-2 0-1-1-2-4-3m-60 60c-5 6-8 9-9 9-1 0-1 0-1-1 0-1 1-2 2-5 1-2 2-3 4-5 1-2 3-4 5-6 2-2 4-4 7-5-1 3-4 8-8 13m23 11l0-35c0-2-1-4-3-5-2-2-4-3-5-5-2-1-4-2-5-4-2-1-4-2-5-2-4 0-8 1-13 4-2 1-4 2-7 3-2 1-3 2-3 2-2 1-2 2-2 4 0 0 1 2 4 4 2 2 3 3 4 3 1 0 2 0 3-1 1 0 2-1 2-2 2-1 5-2 8-4 4-2 6-3 7-2 1 0 1 2 1 4-8 4-14 7-19 11-6 5-10 10-11 16 0 0 0 1 0 1 0 2 1 3 2 5 0 0 2 2 5 6 2 1 3 3 4 3 1 1 2 2 4 2 2 0 5-1 7-3 1-1 2-3 4-5 1-3 3-4 3-5 0 2 0 3 0 3 0 1 0 1 0 1 0 0 0 1-1 1 0 1 0 1 0 1 0 0 0 1 0 1 1 2 5 3 13 4 1 0 2 0 2 0 1-1 1-2 1-3 1 0 0-1 0-3"/>
    </symbol>
  
    <symbol id="alltypes-15" viewBox="0 0 512 512">
      <path d="m497 240c0-3-4-7-11-7-9 0-20 10-20 19 0 4 3 8 7 13 5 5 10 9 10 13 0 3-2 6-4 6-1 1-1 1-2 1-8 0-13-6-15-9-2 1-6 4-6 6 0 3 4 8 12 8 12 0 22-9 22-18 0-4-3-7-5-10-3-3-6-6-9-9-2-2-2-5-2-7 0-3 2-6 3-7 0 0 1 0 1 0 6 0 9 3 12 7 3-1 7-4 7-6m-60 8c0 0 0 1-1 2-4 4-9 8-20 10 2-10 7-19 12-22 8 0 9 4 9 10m9-5c0-5-3-10-11-10-6 0-13 4-19 11-6 7-10 17-10 27 0 11 5 19 13 19 6 0 15-5 24-15l-2-2c-7 6-12 11-16 11-6 0-9-6-9-15 0-2 0-4 0-5 20-6 30-14 30-21m-66 9c0 15-6 28-13 33-3 0-10 0-16-6l4-20c10-12 18-18 20-18 2 0 5 3 5 11m10 1c0-11-5-20-9-20-3 0-13 7-25 20 0 0 2-9 2-16 0-3 0-5-1-5-7 0-14 7-21 15l2 2c6-6 9-9 11-9 0 0 0 1 0 1 0 1-1 5-1 7l-12 61c-1 8-4 9-13 10l0 3 32 0 0-3-1 0c-4 0-9-2-9-5 0 0 0-2 0-5l4-22c3 1 6 3 9 3 8 0 15-5 23-14 6-8 9-15 9-23m-68-16c0-2-2-4-5-4-2 0-4 1-5 6 0 13-3 23-10 40 0-14-2-31-8-42-2-2-4-4-9-4-5 0-13 4-13 16 0 1 0 2 0 3l3 0 0-2c0-8 5-10 6-10 3 0 4 2 5 3 6 14 8 28 8 47-7 16-15 21-18 22-4 0-7 0-11-3-3 2-5 4-5 7 0 3 1 6 5 6 14 0 27-18 37-38 6-12 13-27 16-35 2-5 4-9 4-12m-63-2l-14 0 4-14-3 0c-5 9-10 12-19 16l0 3 8 0-6 31c-1 4-2 8-2 11 0 4 2 8 5 8 7 0 14-6 22-17l-2-1c-5 6-11 11-13 11-1 0-2-2-2-4 0-1 0-4 1-5l6-34 13 0z m-107-36l-2 0-18 4-1 3c2 0 4 0 5 0 3 0 5 1 5 3 0 2-1 3-1 5l-12 57c-1 4-1 8-1 11 0 4 1 8 3 8 7 0 14-7 21-16l-2-2c-5 6-9 11-11 11-1 0-2-2-2-4 0-1 1-4 1-5z m-40 0l-2 0-19 4-1 3c2 0 4 0 5 0 4 0 5 1 5 3 0 2 0 3-1 5l-11 57c-1 4-2 8-2 11 0 4 1 8 4 8 6 0 13-7 21-16l-3-2c-4 6-9 11-10 11-2 0-2-2-2-4 0-1 0-4 0-5z m-58 43l-4 19c-9 12-19 22-21 22-2 0-4-3-4-10 0-15 5-24 12-29 2-2 7-3 12-3 2 0 4 0 5 1m17 32l-3-1c-5 5-9 10-11 10-1 0-1-2-1-3 0-1 0-4 0-5l9-42-3 0c-13 1-26 5-35 15-8 8-12 18-12 28 0 10 4 14 6 14 7 0 18-11 28-23l-3 15c0 4 1 8 4 8 6 0 13-7 21-16"/>
    </symbol>
  
    <symbol id="alltypes-16" viewBox="0 0 512 512">
      <path d="m451 272l0 17 12 0 0-3c3 3 7 4 12 4 12 0 20-7 20-18 0-10-6-14-18-17-6-2-9-3-9-7 0-2 2-4 5-4 3 0 4 2 5 5l14 0 0-15-11 0 0 2c-3-3-7-4-11-4-12 0-19 7-19 18 0 8 5 14 15 17 7 2 12 2 12 6 0 3-2 5-6 5-4 0-6-2-6-6z m-13 0l-19 0c-2 2-5 3-8 3-6 0-10-3-12-8l41 0c0-2 0-4 0-6 0-6-1-11-5-16-5-8-14-13-24-13-8 0-15 3-21 9-5 5-8 12-8 20 0 8 3 15 8 21 6 5 13 8 21 8 12 0 22-7 27-18m-39-16c2-6 6-10 12-10 6 0 11 4 12 10z m-70 5c0-8 6-14 13-14 8 0 14 6 14 14 0 8-6 14-14 14-7 0-13-6-13-14m-15 30l-6 0 0 15 27 0 0-15-6 0 0-9c4 5 9 7 16 7 16 0 27-11 27-28 0-16-11-28-27-28-7 0-13 2-16 8l0-7-21 0 0 14 6 0z m-37-43l-7 22-7-22 4 0 0-14-25 0 0 14 4 0 16 41-1 2-5 0 0 15 25 0 0-15-5 0 17-43 5 0 0-14-25 0 0 14z m-68 41l21 0 0-15-5 0 0-26 6 0 0-14-6 0 0-16-16 0 0 16-7 0 0 14 7 0z m-68-15l-7 0 0 15 29 0 0-15-7 0 0-56-22 0 0 14 7 0z m-40 0l-7 0 0 15 29 0 0-15-7 0 0-56-22 0 0 14 7 0z m-67-13c0-8 5-14 13-14 7 0 13 6 13 14 0 8-6 14-13 14-8 0-13-6-13-14m26 21l0 7 22 0 0-15-6 0 0-26 6 0 0-14-21 0 0 7c-4-6-10-8-17-8-16 0-27 12-27 28 0 17 11 28 27 28 7 0 12-2 16-7"/>
    </symbol>
  
    <symbol id="alltypes-17" viewBox="0 0 512 512">
      <path d="m487 283l-5-5-29 0-4 5 4 5 29 0z m-30-38l0-18-5-5-5 5 0 19 5 4z m30 8l-5-5-24 0-5 5 5 5 24 0z m7 23l0-16-5-5-5 5 0 16 5 5z m-3-56l-5-5-28 0-5 5 5 5 28 0z m-87 56l0-16-5-5-5 5 0 16 5 5z m30 7l-5-5-24 0-5 5 5 5 24 0z m-30-38l0-18-5-5-5 5 0 19 5 4z m30 8l-5-5-24 0-5 5 5 5 24 0z m0-33l-5-5-24 0-5 5 5 5 24 0z m-89 64l0-24-5-5-5 5 0 24 5 5z m30-31l-5-5-23 0-5 5 4 5 24 0z m-30-8l0-18-10-9 0 28 5 4z m30-25l-5-5-33 0 9 10 24 0z m8 25l0-18-6-5-4 5 0 19 4 4z m-70 38l-5-5-27 0-5 5 5 5 27 0z m0-30l-5-5-24 0-5 5 5 5 24 0z m-30-8l0-26-5-4-5 4 0 27 5 4z m37 31l0-16-5-5-5 5 0 16 5 5z m0-31l0-26-5-4-5 4 0 27 5 4z m-74 39l0-24-5-5-5 5 0 24 5 5z m0-39l0-18-10 0 0 19 5 4z m15-25l-5-5-29 0-5 5 4 5 30 0z m-115 56l0-16-5-5-5 5 0 26z m31 7l-5-5-24 0-10 10 34 0z m-31-38l0-26-5-5-5 5 0 27 5 4z m-55 31l0-16-5-5-5 5 0 26z m30 7l-5-5-24 0-9 10 33 0z m-30-38l0-26-5-5-5 5 0 27 5 4z m-63 39l0-24-5-5-5 5 0 24 5 4z m0-39l0-18-5-5-5 5 0 19 5 4z m37 39l0-24-5-5-5 5 0 24 5 4z m-7-31l-5-5-24 0-5 5 5 5 24 0z m0-33l-5-5-24 0-5 5 5 5 24 0z m7 25l0-18-5-5-5 5 0 19 5 4z"/>
    </symbol>
  
    <symbol id="alltypes-18" viewBox="0 0 512 512">
      <path d="m452 279l-9 0 0 10 9 0z m11 0l-9 0 0 10 9 0z m12 0l-10 0 0 10 10 0z m-23-33l-9 0 0 9 9 0z m11 11l-9 0 0 9 9 0z m23 22l-9 0 0 10 9 0z m-11-22l-10 0 0 9 10 0z m-12-22l-9 0 0 9 9 0z m23 22l-9 0 0 9 9 0z m11 11l-9 0 0 9 9 0z m-22-33l-10 0 0 9 10 0z m11 0l-9 0 0 9 9 0z m11 0l-9 0 0 9 9 0z m-109 33l-9 0 0 9 9 0z m11 11l-9 0 0 10 9 0z m-11-22l-9 0 0 9 9 0z m22 22l-9 0 0 10 9 0z m-22-33l-9 0 0 9 9 0z m11 11l-9 0 0 9 9 0z m23 22l-10 0 0 10 10 0z m-12-22l-9 0 0 9 9 0z m-11-22l-9 0 0 9 9 0z m23 22l-10 0 0 9 10 0z m-12-22l-9 0 0 9 9 0z m23 22l-9 0 0 9 9 0z m-11-22l-10 0 0 9 10 0z m11 11l-9 0 0 9 9 0z m-110 56l-9 0 0 9 9 0z m0-11l-9 0 0 9 9 0z m0-12l-9 0 0 10 9 0z m0-11l-9 0 0 9 9 0z m11 11l-9 0 0 10 9 0z m-11-22l-9 0 0 9 9 0z m22 22l-9 0 0 10 9 0z m-22-33l-9 0 0 9 9 0z m34 33l-10 0 0 10 10 0z m-34-44l-9 0 0 9 9 0z m11 11l-9 0 0 9 9 0z m34 22l-9 0 0 9 9 0z m-23-33l-9 0 0 9 9 0z m23 22l-9 0 0 9 9 0z m-11-22l-10 0 0 9 10 0z m11 11l-9 0 0 9 9 0z m-99 56l-9 0 0 9 9 0z m12 0l-10 0 0 9 10 0z m-23-34l-9 0 0 9 9 0z m34 34l-9 0 0 9 9 0z m-23-23l-9 0 0 10 9 0z m-11-22l-9 0 0 9 9 0z m23 22l-10 0 0 10 10 0z m-23-33l-9 0 0 9 9 0z m45 45l-9 0 0 9 9 0z m-11-12l-9 0 0 10 9 0z m-34-44l-9 0 0 9 9 0z m45 44l-9 0 0 10 9 0z m0-11l-9 0 0 9 9 0z m0-11l-9 0 0 9 9 0z m0-11l-9 0 0 9 9 0z m0-11l-9 0 0 9 9 0z m-87 33l-9 0 0 9 9 0z m12 11l-10 0 0 10 10 0z m-12-22l-9 0 0 9 9 0z m-11-22l-9 0 0 9 9 0z m11 11l-9 0 0 9 9 0z m23 22l-10 0 0 9 10 0z m-23-33l-9 0 0 9 9 0z m0-11l-9 0 0 9 9 0z m12 11l-10 0 0 9 10 0z m-12-22l-9 0 0 9 9 0z m-85 66l-9 0 0 10 9 0z m12 0l-10 0 0 10 10 0z m0-11l-10 0 0 9 10 0z m11 11l-9 0 0 10 9 0z m-11-22l-10 0 0 9 10 0z m0-11l-10 0 0 9 10 0z m0-11l-10 0 0 9 10 0z m-12-22l-9 0 0 9 9 0z m12 11l-10 0 0 9 10 0z m0-11l-10 0 0 9 10 0z m-54 66l-9 0 0 10 9 0z m11 0l-9 0 0 10 9 0z m0-11l-9 0 0 9 9 0z m11 11l-9 0 0 10 9 0z m-11-22l-9 0 0 9 9 0z m0-11l-9 0 0 9 9 0z m0-11l-9 0 0 9 9 0z m-11-22l-9 0 0 9 9 0z m11 11l-9 0 0 9 9 0z m0-11l-9 0 0 9 9 0z m-76 55l-9 0 0 9 9 0z m11 11l-9 0 0 10 9 0z m12 0l-10 0 0 10 10 0z m-12-22l-9 0 0 9 9 0z m23 22l-9 0 0 10 9 0z m-11-22l-10 0 0 9 10 0z m22 22l-9 0 0 10 9 0z m-34-44l-9 0 0 9 9 0z m23 22l-9 0 0 9 9 0z m11 11l-9 0 0 9 9 0z m-22-33l-10 0 0 9 10 0z m22 22l-9 0 0 9 9 0z m-11-22l-9 0 0 9 9 0z m11 11l-9 0 0 9 9 0z"/>
    </symbol>
  
</svg>
